<svg xmlns="http://www.w3.org/2000/svg" viewBox="0 0 64 64">
  <circle cx="32" cy="32" r="32" fill="#2563eb"/>
  <g transform="translate(32,32) rotate(-40) translate(-32,-32)">
    <path fill="white" d="M32 10 C34 10 36 11 37 13 L46 30 L52 30 C54 30 56 31.5 56 33.5 C56 35.5 54 37 52 37 L46 37 L37 54 C36 56 34 57 32 57 C30 57 29 55.5 29.5 53.5 L33 37 L22 37 L19 41 C18.5 42 17.5 42.5 16.5 42.5 C15 42.5 14 41.5 14 40 L14 37.5 L11 35 L11 32 L14 29.5 L14 27 C14 25.5 15 24.5 16.5 24.5 C17.5 24.5 18.5 25 19 26 L22 30 L33 30 L29.5 13.5 C29 11.5 30 10 32 10 Z"/>
  </g>
</svg>
